<svg width="150" height="30" fill="none" xmlns="http://www.w3.org/2000/svg"><path d="M.97 23.168C.323 21.753 0 20.091 0 18.18s.31-3.6.93-5.066c.646-1.492 1.522-2.775 2.626-3.848 2.344-2.225 5.28-3.338 8.81-3.338 3.69 0 6.734.825 9.132 2.474 2.694 1.885 4.04 4.581 4.04 8.09 0 4.345-1.036 7.552-3.11 9.62-2.048 2.068-5.254 3.102-9.618 3.102-6.062 0-10.008-2.016-11.84-6.047zm2.344-5.773c0 6.178 3.205 9.267 9.617 9.267 3.152 0 5.711-.916 7.678-2.748 1.966-1.807 2.95-4.176 2.95-7.108 0-2.748-1.172-4.843-3.516-6.282-1.993-1.257-4.512-1.885-7.556-1.885-2.425 0-4.567.85-6.426 2.552-1.831 1.702-2.747 3.77-2.747 6.204zm40.369 3.77c0-3.115-.175-5.406-.526-6.872.216-.393-.107-.589-.97-.589-.915 0-2.1.223-3.555.668-1.455.445-2.64.89-3.557 1.335-2.182 1.02-3.394 2.015-3.636 2.984v10.68H28.73c-.35-.89-.525-3.39-.525-7.5 0-3.664.067-6.36.202-8.088.162-1.728.283-2.71.364-2.945.7-.445 1.266-.668 1.697-.668.673 0 1.01.772 1.01 2.317 0 .602-.04 1.191-.121 1.767-.054.55-.081.93-.081 1.139 4.364-3.116 7.745-4.673 10.143-4.673 2.72 0 4.27 2.133 4.647 6.4.161 1.493.242 3.56.242 6.205l-.04 3.102c0 1.151.027 2.264.08 3.337-.269.158-.484.236-.646.236a5.725 5.725 0 00-.525-.118 8.361 8.361 0 00-1.05-.118 14.148 14.148 0 01-.445-3.18c-.027-1.1-.04-2.108-.04-3.024l.04-2.395zm34.671 2.081c1.347-4.24 2.91-11.99 4.688-23.246 1.697 0 2.586.51 2.666 1.531.028.315.04.537.04.668.028.13-.013.589-.12 1.374-.108.76-.27 1.833-.485 3.22a215.77 215.77 0 01-1.738 10.563c-.916 4.686-1.859 8.639-2.829 11.859-.97.654-1.724.759-2.262.314-.243-.236-.458-.55-.647-.943-.189-.418-.404-.89-.647-1.413-.35-.445-.996-1.623-1.94-3.534-.942-1.911-1.71-3.43-2.302-4.555a85.023 85.023 0 00-1.657-3.142c-1.24-2.172-2.277-3.442-3.112-3.809-.97 1.467-2.694 5.485-5.172 12.056a175.74 175.74 0 00-1.172 3.22 73.14 73.14 0 01-.89 2.355l-2.505-.117L48.168 6.95a1.024 1.024 0 01-.08-.392c0-.131.04-.262.12-.393.108-.131.283-.249.526-.353a4.213 4.213 0 011.374-.236c.458 0 .781.092.97.275.215.157.377.366.484.628.135.262.243.55.324.864.08.314.229.72.444 1.217.243.498.58 1.23 1.01 2.2.458.968.943 1.989 1.455 3.062l1.536 3.22c.512 1.047.997 2.016 1.455 2.906.97 1.963 1.575 3.063 1.818 3.298 3.125-7.487 5.051-11.924 5.778-13.311.728-1.414 1.186-2.278 1.374-2.592.297-.445.526-.668.687-.668 1.159 0 3.112 2.513 5.86 7.54a144.415 144.415 0 012.101 3.848c1.59 2.984 2.573 4.712 2.95 5.183zm25.054 0c-2.021 3.09-4.715 5-8.082 5.733-.781.157-1.495.236-2.142.236h-1.576a10.248 10.248 0 01-1.374-.197 5.033 5.033 0 01-1.414-.51c-.997-.55-1.495-1.322-1.495-2.317a7.054 7.054 0 01-.162-1.57c0-.603.135-1.388.404-2.357.27-.968.755-2.015 1.455-3.141a16.052 16.052 0 012.627-3.102c2.128-1.99 4.431-3.272 6.91-3.848a9.457 9.457 0 011.98-.236c.619 0 1.172.04 1.657.118 1.562 0 2.613 1.034 3.152 3.102.35 1.309.552 3.141.606 5.497.08 2.33.148 4.137.202 5.42a18.75 18.75 0 00.525 3.455h-2.384a35.827 35.827 0 01-.243-1.885 85.67 85.67 0 00-.161-1.531 27.966 27.966 0 00-.485-2.867zm-.162-6.086c0-1.519-.768-2.278-2.303-2.278a4.11 4.11 0 00-.566-.04c-1.966 0-4.04.917-6.223 2.75-1.024.837-1.9 1.78-2.626 2.827-1.078 1.492-1.617 2.827-1.617 4.005 0 1.545.916 2.46 2.748 2.749 2.424-.053 4.741-1.126 6.95-3.22a13.718 13.718 0 002.344-2.984c.862-1.44 1.293-2.71 1.293-3.81zm5.698-2.592a1.122 1.122 0 01-.081-.432c0-.183.067-.419.202-.707s.323-.536.566-.746c.269-.21.552-.3.849-.275.323 0 .579.184.767.55l6.789 12.251c.216-.314.552-.89 1.01-1.727.485-.864 1.024-1.833 1.617-2.906a338.16 338.16 0 001.899-3.338 382.025 382.025 0 011.859-3.22c1.293-2.225 2.061-3.337 2.303-3.337.566 0 .97.21 1.212.628.27.393.405.694.405.903v.432c-1.509 3.194-2.91 6.139-4.203 8.835-1.266 2.696-2.115 4.45-2.546 5.262-.404.785-.768 1.413-1.091 1.885-.566.811-1.118 1.217-1.657 1.217-.539 0-1.158-.406-1.859-1.217-.7-.838-1.495-1.95-2.384-3.338-1.562-2.513-3.448-6.086-5.657-10.72zm29.337 12.448c2.371 0 5.94-1.047 10.709-3.142.296 0 .539.105.727.315a.894.894 0 01.283.667c-1.078 1.78-3.138 3.168-6.183 4.162-3.044.995-5.886 1.165-8.526.51-2.99-.758-4.809-2.394-5.455-4.908-.054-.497-.081-1.165-.081-2.002 0-.838.215-1.937.646-3.299.458-1.387 1.226-2.696 2.304-3.926a11.93 11.93 0 013.798-2.906 10.498 10.498 0 014.647-1.06c1.563 0 3.314.523 5.254 1.57.916.498 1.643 1.06 2.182 1.689.538.628.808 1.27.808 1.924 0 .183-.014.366-.041.55-.053 1.596-.848 2.604-2.384 3.023-.673.183-1.454.275-2.343.275l-5.819-.235c-1.94 0-3.422.405-4.445 1.217-.593.445-1.011 1.112-1.253 2.002.673 2.383 2.397 3.574 5.172 3.574zm7.193-12.134a6.087 6.087 0 00-1.859-.903c-.646-.183-1.185-.275-1.616-.275-.431 0-1.132.144-2.101.432a17.25 17.25 0 00-2.587.903c-1.858.838-2.788 1.715-2.788 2.631 2.155.183 3.772.275 4.849.275 2.991 0 5.011-.249 6.062-.746.646-.262.97-.59.97-.982 0-.47-.31-.916-.93-1.335z" fill="#F8F1EA"/></svg>