<svg width="182" height="34" fill="none" xmlns="http://www.w3.org/2000/svg"><path d="M1.177 26.256C.392 24.654 0 22.77 0 20.605c0-2.166.376-4.08 1.128-5.741a13.482 13.482 0 013.187-4.361C7.158 7.98 10.72 6.72 15.003 6.72c4.478 0 8.172.934 11.081 2.804 3.269 2.136 4.903 5.192 4.903 9.167 0 4.925-1.258 8.56-3.775 10.903-2.484 2.344-6.374 3.516-11.67 3.516-7.354 0-12.143-2.284-14.365-6.854zm2.843-6.541c0 7.001 3.89 10.502 11.67 10.502 3.824 0 6.93-1.038 9.315-3.115 2.387-2.047 3.58-4.732 3.58-8.055 0-3.115-1.422-5.489-4.266-7.12C21.9 10.503 18.844 9.79 15.15 9.79c-2.941 0-5.54.964-7.795 2.892-2.223 1.929-3.335 4.273-3.335 7.032zm48.982 4.272c0-3.53-.213-6.127-.638-7.788.262-.445-.13-.668-1.176-.668-1.112 0-2.55.253-4.315.757-1.765.504-3.203 1.009-4.315 1.513-2.647 1.157-4.118 2.285-4.413 3.382v12.105H34.86c-.425-1.009-.637-3.842-.637-8.5 0-4.154.082-7.21.245-9.168.196-1.958.343-3.07.441-3.337.85-.505 1.537-.757 2.06-.757.817 0 1.225.875 1.225 2.626 0 .682-.049 1.35-.147 2.002-.065.623-.098 1.054-.098 1.291 5.296-3.53 9.398-5.296 12.307-5.296 3.301 0 5.18 2.418 5.638 7.254.197 1.691.295 4.035.295 7.032l-.05 3.515c0 1.306.033 2.567.099 3.783-.327.178-.589.267-.785.267a7.325 7.325 0 00-.637-.133 10.76 10.76 0 00-1.275-.134 15.054 15.054 0 01-.54-3.605 131.427 131.427 0 01-.048-3.426l.049-2.715zm42.068 2.359C96.704 21.539 98.6 12.757 100.757 0c2.059 0 3.138.579 3.236 1.736.033.356.049.608.049.756.033.148-.016.668-.147 1.558-.131.86-.327 2.077-.588 3.649a230.138 230.138 0 01-2.109 11.971c-1.111 5.31-2.255 9.79-3.432 13.44-1.177.742-2.092.86-2.746.356-.294-.267-.555-.623-.784-1.068-.229-.475-.49-1.009-.785-1.602-.424-.505-1.209-1.84-2.353-4.005a225.983 225.983 0 00-2.795-5.163 94.211 94.211 0 00-2.01-3.56c-1.504-2.462-2.762-3.901-3.775-4.317-1.177 1.662-3.269 6.216-6.276 13.663a191.295 191.295 0 00-1.422 3.649 79.35 79.35 0 01-1.079 2.67l-3.04-.133L58.444 7.877a1.095 1.095 0 01-.098-.445c0-.148.049-.297.147-.445.13-.148.343-.282.637-.4a5.437 5.437 0 011.667-.268c.556 0 .948.104 1.177.312.262.178.458.415.589.712.163.297.294.623.392.979.098.356.278.816.54 1.38a82.64 82.64 0 011.225 2.492c.555 1.097 1.144 2.254 1.765 3.47l1.863 3.65a176.07 176.07 0 001.765 3.293c1.177 2.226 1.912 3.471 2.207 3.739 3.791-8.486 6.128-13.514 7.01-15.087.883-1.602 1.439-2.581 1.668-2.937.36-.504.637-.757.833-.757 1.406 0 3.776 2.849 7.11 8.545a160.379 160.379 0 012.55 4.361c1.928 3.382 3.12 5.34 3.579 5.875zm30.398 0c-2.451 3.5-5.72 5.666-9.806 6.497-.948.178-1.814.267-2.598.267h-1.913a13.27 13.27 0 01-1.667-.223 6.388 6.388 0 01-1.716-.578c-1.209-.623-1.814-1.498-1.814-2.626a7.478 7.478 0 01-.196-1.78c0-.682.164-1.572.49-2.67.327-1.098.916-2.285 1.765-3.56a18.58 18.58 0 013.187-3.516c2.583-2.255 5.377-3.709 8.385-4.361.882-.178 1.683-.267 2.402-.267.752 0 1.422.044 2.01.133 1.896 0 3.171 1.172 3.825 3.516.425 1.483.67 3.56.735 6.23.098 2.64.18 4.688.245 6.142.098 1.424.311 2.73.638 3.916h-2.893a37.549 37.549 0 01-.294-2.136 113.05 113.05 0 00-.196-1.736c-.164-1.246-.36-2.329-.589-3.248zm-.196-6.898c0-1.721-.931-2.582-2.795-2.582a5.309 5.309 0 00-.686-.044c-2.386 0-4.903 1.038-7.551 3.115a16.21 16.21 0 00-3.187 3.204c-1.307 1.692-1.961 3.205-1.961 4.54 0 1.75 1.111 2.788 3.334 3.115 2.942-.06 5.753-1.276 8.433-3.65a15.772 15.772 0 002.844-3.382c1.046-1.631 1.569-3.07 1.569-4.316zm6.913-2.938a1.207 1.207 0 01-.098-.49c0-.207.082-.474.245-.8a2.55 2.55 0 01.687-.846c.327-.237.67-.34 1.029-.311.393 0 .703.207.932.623l8.237 13.885c.262-.356.67-1.009 1.226-1.958.588-.98 1.242-2.077 1.961-3.294a359.65 359.65 0 002.305-3.782 434.025 434.025 0 012.255-3.65c1.569-2.521 2.5-3.782 2.795-3.782.686 0 1.176.237 1.471.712.326.445.49.786.49 1.023v.49c-1.831 3.62-3.53 6.957-5.099 10.013-1.537 3.056-2.566 5.044-3.089 5.963-.491.89-.932 1.602-1.324 2.136-.686.92-1.357 1.38-2.01 1.38-.654 0-1.406-.46-2.256-1.38-.85-.949-1.814-2.21-2.892-3.782-1.896-2.849-4.184-6.898-6.865-12.15zm35.596 14.108c2.877 0 7.208-1.187 12.993-3.56.36 0 .654.118.883.356.229.207.343.46.343.756-1.307 2.018-3.808 3.59-7.502 4.717-3.693 1.128-7.142 1.32-10.345.579-3.628-.86-5.835-2.715-6.619-5.563-.065-.564-.098-1.32-.098-2.27 0-.949.261-2.195.784-3.738.556-1.572 1.488-3.056 2.795-4.45a14.432 14.432 0 014.609-3.293 13.482 13.482 0 015.638-1.202c1.896 0 4.021.594 6.374 1.78 1.112.564 1.994 1.202 2.648 1.914.654.712.981 1.439.981 2.18a4.1 4.1 0 01-.049.624c-.066 1.81-1.03 2.952-2.893 3.426-.817.208-1.765.312-2.844.312l-7.06-.267c-2.354 0-4.152.46-5.394 1.38-.719.504-1.225 1.26-1.52 2.27.818 2.699 2.91 4.049 6.276 4.049zm8.728-13.752a7.614 7.614 0 00-2.256-1.023c-.784-.208-1.438-.312-1.961-.312-.523 0-1.373.164-2.55.49a21.897 21.897 0 00-3.137 1.023c-2.256.95-3.384 1.944-3.384 2.982 2.615.208 4.577.312 5.884.312 3.628 0 6.08-.282 7.355-.846.784-.297 1.176-.667 1.176-1.112 0-.534-.376-1.039-1.127-1.514z" fill="#C62100"/></svg>