<svg width="100" height="44" fill="none" xmlns="http://www.w3.org/2000/svg"><path d="M84.932 40.82h.44c.218 0 .375-.028.47-.082.092-.062.136-.153.136-.285a.297.297 0 00-.136-.267c-.09-.058-.233-.09-.414-.09h-.496v.724zm-.534 1.511v-2.65h1.256c.313 0 .54.068.682.216.14.144.213.321.213.53a.68.68 0 01-.18.494c-.118.122-.296.207-.537.248a.62.62 0 01.258.172c.064.07.167.224.307.458l.31.532h-.667l-.218-.425c-.133-.256-.254-.43-.355-.524a.558.558 0 00-.399-.14h-.136v1.09h-.534zm1.163-3.342c-.611 0-1.113.199-1.495.61-.38.4-.57.87-.57 1.4 0 .552.194 1.028.59 1.42.397.39.868.587 1.422.587.55 0 1.024-.197 1.42-.588A1.94 1.94 0 0087.52 41c0-.38-.099-.729-.299-1.047a1.928 1.928 0 00-.765-.726 1.99 1.99 0 00-.895-.237zm-.126-.489c.746 0 1.36.247 1.841.742.483.495.724 1.083.724 1.757a2.41 2.41 0 01-.733 1.762 2.413 2.413 0 01-1.766.739 2.407 2.407 0 01-1.772-.737A2.392 2.392 0 0183 40.999c0-.486.128-.931.387-1.335.255-.405.578-.702.965-.886.388-.188.746-.278 1.083-.278zM15 .5h15v18L15 .5zm9.992 12l.008 18-5.367-4.063-3.622.003L16 16.882h3.627l5.365-4.382zM30 24.5v18.989L15 43.5l15-19zm3-3v22l16-.012L33 21.5zM45 .509L60.985.5l.015 21L45 .509zM65 .51l.032 42.99L81 43.487 80.973.5 65 .51zm18-.006l.018 24.992s.466.008 4.902.002c7.89-.002 12.088-5.61 12.08-12.456C99.994 6.19 95.961.495 87.906.5 83.576.506 83 .504 83 .504zM50.512 43.5l2.671-.003c9.868-.008 11.372-11.267 8.555-15.44C59.943 25.42 45.594 6.664 43.986 4.453 42.319 2.158 44.44.5 44.44.5l-2.62.007c-9.874.005-11.377 11.334-8.555 15.505 1.789 2.64 15.96 21.535 17.748 23.611 2.015 2.335-.501 3.877-.501 3.877zM15 43.488V.5L0 .514.028 43.5 15 43.488z" fill="#000"/></svg>