<svg width="100" height="64" fill="none" xmlns="http://www.w3.org/2000/svg"><path d="M23.5 16a3.5 3.5 0 10-.001-7.001 3.5 3.5 0 000 7.001z" fill="#000"/><path d="M18.08 19.444V12.36c0-2.407-2.34-4.596-4.15-4.045-1.8.557-9.36 2.906-9.67 3.047-.31.146-4.26 1.695-4.26 6.092l.06 28.569s.17 2.873 3.11 2.816c0 0 .86 0 2.24-.762 0 0 3.4-1.894 3.63-1.996.22-.096 2.07-.698 2.13 1.874V64l5.58-1.818V47.955c0-.966.69-5.747 3.11-7.724.15-.128 1.32-.896 2.36.525 1.05 1.42 1.96 1.638 1.96 1.638s1.13.506 2.13-1.228c.06-.122 1.82-3.085 1.9-3.22.08-.134.34-.531 1.09-.466 0 0 1.85-.122 1.56 2.514 0 0 8.56-2.643 9.27-3.046.11-.045 3.38-1.376 5.35-4.448 0 0 .59-.883 1.33-.82.13 0 1.95.116 1.43 2.574 0 0 8.3-2.58 8.76-2.81.98-.409 3.57-1.504 3.51-4.563.03-.909-.21-2.495-1.5-3.635-.07-.07-5.71-4.294-5.76-4.332-.49-.423-.74-1.383.06-2.4 0 0 .63-.935 1.56-.877 0 0 .7-.032 1.78 1.408.14.14.94 1.229 1.5 1.344 0 0 .46.153 1.03-.41 1.4-1.235 2.13-1.286 2.13-1.286s2.02-.588 2.02 1.754v4.921c0 1.076 1.39 4.371 4.55 4.212 0 0 1.09-.116 2.13-.41l3.39-1.107s4.27-1.305 5.76-4.102c0 0 .71-1.402 1.73-1.402 0 0 1.78-.236 1.61 2.516l4.84-1.639V9.55s-.14-1.408 1.49-1.408c1.61 0 1.56 1.286 1.56 1.286v24.595c0 .69.71 2.84 3.05 2.809 0 0 6.56-.057 6.56-5.74v-2.164l-1.67.583v2.054s.11 1.382-1.44 1.459c-.14.032-1.66-.026-1.61-1.524V1.41S95.16.002 93.78.002c0 0-1.26-.116-2.24 1.644-.98 1.754-1.33 3.098-2.65 3.098 0 0-1.57.192-1.55-1.23V1.993l-4.96 1.644v5.792c0 1.44-1.06 8.582-2.93 8.608-.13.02-1.89.269-1.96-1.523V9.78c.05-.908-.65-3.622-2.88-3.334l-2.01.41v14.578c0 .448-.16 2.599-2.54 2.694-.21.033-2.53-.064-2.53-2.342v-9.484s-.11-1.702 1.56-1.817l.05-2.458s-5.06 1.171-7.42 5.504c-.28.307-.87.582-1.27.582-.24 0-1.38-.07-1.44-1.229v-1.58l-8.35 2.809s-3.28 1.056-3.28 4.455c0 0 0 2.342 1.44 3.449l5.82 4.454s.99.717.51 1.933c-.06.205-.74 1.607-2.13 1.639-.27.031-1.15 0-1.67-1.35 0 0-.46-1.755-1.95-1.23 0 0-2.8.999-3 1.056-.19.058-1.84.352-1.84-1.638v-6.56c0-.487-.59-3.264-2.88-3.161 0 0-1.32.115-2.47.646v2.867s1.55-.236 1.55 1.812v9.9s.07 2.47-2.47 2.515c-2.13-.025-2.48-2.092-2.48-2.342-.02-1.401.06-31.557.06-31.557L30.8 2.99l.06 21.605s-.31 7.014-2.25 9.721c-.56.775-2.53.775-2.7-.94V22.253l-4.95 1.58v4.506c0 .755-.69 9.702-3.22 9.574-.32.007-1-.352-1.01-1.888l.03-10.899-4.84 1.754s-.05 5.99-.06 6.323c-.15 1.92.12 10.598-5.53 10.598 0 0-1.38.057-1.38-1.639V17.921s.16-2.739 2.25-3.693c0 0 2.13-.774 2.59-.934.45-.16 2.19 0 2.19 1.933v6.15l6.1-1.933zM96 1.497C96 .59 96.707 0 97.5 0S99 .59 99 1.497C99 2.416 98.293 3 97.5 3S96 2.416 96 1.497zm1.5-1.18c-.623 0-1.113.493-1.113 1.18 0 .694.49 1.186 1.114 1.186.612 0 1.113-.493 1.113-1.186 0-.688-.5-1.18-1.114-1.18zm-.264 2.02h-.321V.657h.623c.406 0 .632.134.632.499 0 .304-.18.426-.396.45l.396.73h-.359l-.368-.717h-.207v.718zm0-.974h.283c.236 0 .32-.079.32-.237 0-.159-.102-.207-.338-.207h-.265v.444z" fill="#000"/></svg>