<svg width="100" height="34" fill="none" xmlns="http://www.w3.org/2000/svg"><path d="M90.217 26.57a2.08 2.08 0 01-2.084-2.073V0h-17.4c-8.416 0-15.416 6.07-16.816 14.048v-.481C53.917 6.07 47.817 0 40.283 0 32.75 0 26.65 6.07 26.65 13.567V26.32H10.217a2.718 2.718 0 01-2.734-2.72c0-1.51 1.217-2.72 2.734-2.72H23.1v-7.978H11.35a2.764 2.764 0 01-2.767-2.753 2.779 2.779 0 012.767-2.77h11.767V0H11.333C5.8 0 1.317 4.461 1.317 9.968c0 2.421.866 4.644 2.316 6.369A9.935 9.935 0 000 24.016c0 5.506 4.483 9.967 10.017 9.967h23.8V13.617c0-3.55 2.9-6.436 6.466-6.436 3.567 0 6.467 2.886 6.467 6.436V34h7.167V19.952C55.3 27.814 62.1 33.801 70.35 34h.4c2.467 0 5.6-.813 6.917-2.023V13.65H70.35v12.92c-5.8 0-9.6-4.379-9.6-9.57 0-5.49 4.483-9.951 10-9.951h10.183v17.464c0 5.241 4.267 9.487 9.534 9.487H100v-7.43h-9.783z" fill="#000"/></svg>