<svg width="100" height="30" fill="none" xmlns="http://www.w3.org/2000/svg"><path d="M37.546 6.543s-2.111-.409-2.123-3.167C35.41.619 38.175.521 38.143.508c-.031-.012.627-.018.854.034.588.133.81.166.81.166l.61.11.451.067.537.077.516.045.65.087.518.034.86.056.695.043.631.023s3.681.023 5.921-.531c2.67-.663 1.93 2.612.631 3.067-.01.002-.096 13.466-.096 13.466l.128.168.145.133.159.133.158.143c.074.078.411.41.39 1.196-.021.788-.485 1.452-1.022 1.419-.535-.034-1.514-.246-1.514-.246l-.315-.043-.335-.01h-.296l-.304.01s-1.176.028-1.68.208a1.989 1.989 0 01-.372.078l-.282-.01-.201-.044s-.748-.286-.758-1.405c-.01-1.12 1.369-1.651 1.369-1.651v-2.093h-3.198v2.182s1.096.342 1.021 1.439c-.075 1.097-.668 1.56-.968 1.616-.306.055-.347.002-.347.002l-.369-.112-.41-.088-.325-.066s-1.412-.307-2.556-.023l-.283.056-.243.044-.17.033-.229.033h-.2l-.221-.023s-.767-.087-.767-1.183c0-1.097 1.335-1.797 1.335-1.807.02-.45.011-2.347.011-2.347l-.327-.045s-4.582.076-4.752-4.718c-.115-3.235 3.313-3.607 3.322-3.609.085-.022.221-.079.221-.079zm9.486-1.295s-3.38.172-3.356 6.113c0 .012 3.38 0 3.38 0l-.024-6.113z" fill="#000"/><path d="M23.681 1.495C25.143 1.513 27 1.01 27 1.01l.87-.171.442-.061.556-.046s5.517-.543 5.507 6.01c-.004 3.08-4.11 6.011-4.11 6.011s-.226.8.547 3.73c.773 2.932 2.081 4.747 2.081 4.747s.836-1.229 2.976-1.216c.752.005 4.347.84 4.122 5.003-.248 4.55-4.205 4.484-4.215 4.484-.505-.035-2.196.313-4.642-2.226-2.468-2.56-2.609-3.856-3.49-5.558-.882-1.703-1.824-5.824-1.824-5.824l-.054-.267-.119-.035-.097.01-.106.014-.902.358s-.075 2.109 0 2.13c.075.022 1.224.335 1.214 1.438-.012 1.32-1.182 1.285-1.182 1.285s-.74-.013-1.568-.232c-.827-.22-2.071-.115-2.071-.115-.564.196-1.281.264-1.43.276-.127-.006-1.123-.083-1.094-1.097.032-1.146 1.59-1.705 1.59-1.705l-.01-6.103s.01-6 0-8.036c-2.094-.487-1.963-1.968-1.985-2.003-.022-.035-.022-1.355 1.083-1.309h.139l.096.013c.47.116 1.47.95 4.358.981zm-4.358-.98l-.17-.011.17.01zm5.067 4.12v6.115s1.181.195 2.824-1.263c.553-.491 1.095-1.228 1.182-2.71.086-1.484-.602-2.13-1.32-2.537-.72-.406-1.643-.115-1.643-.115l-.163.056-.13.035-.148.048-.149.059-.13.07-.118.055-.205.188zM9.065.502C15.54.658 18.04 6.948 18 11.353c-.04 4.407-3.482 10.218-9.058 10.146-5.577-.07-9.016-5.845-8.94-10.484C.076 6.376 3.427.367 9.064.502zM9.01 3.973c-2.874-.02-2.774 8.626.045 8.715 2.696.084 3.127-8.69-.045-8.715zm79.345 13.793s-1.315.367-1.354 1.59c-.026.795.771 1.056.771 1.056l.158.058.254.03.169-.01.231-.01.17-.037.206-.036.183-.024.317-.046.364-.02.449-.02.508-.017.498-.018 1.018.02h.606l.692.013.812.028.812.056.678.028.75.042.546.036.413-.017.17-.024s.39.037.758-1.122c.056-.174 1.267-3.461 1.267-3.461s.312-1.278-.826-1.463c-1.138-.184-1.659 1.482-2.275 1.983-.046.037-1.12 1.262-1.973 1.26-.861-.002-2.25-.024-2.25-.024l.054-5.11 1.464-.015s.545.917 1.369.905c.824-.011 1.582-.377 1.63-1.104.027-.405.047-3.052.047-3.052s.031-1.224-1.495-1.313c-.774-.045-1.22.378-1.38.62-.007.011-1.685-.031-1.685-.031l-.005-3.168 2.298-.003s.876-.159 2.283 1.3c.278.287.915 1.42 1.968 1.36 1.055-.06.974-.912.974-.912l-.114-.528-.151-.448-.29-.884-.137-.436-.173-.571-.161-.556-.163-.504-.126-.436-.116-.312s-.114-.976-1.236-.85c-.036.004-.814.067-.814.067l-.655.015-1.08.059-.837.023-2.558-.05-.908-.057-.74-.082-.87-.044-.584.029s-.909.079-.902 1.105c0 .283.666.778 1.025 1.221.039.049-.054 13.91-.054 13.91m-7.878 3.878s-.945-.564-1.998-.571c-1.053-.007-3.81 1.16-3.839 4.41-.03 3.25 1.587 3.926 3.97 4.011 2.385.087 4.263-.66 5.3-1.957 1.036-1.296 1.843-3.34 1.885-5.107l.161-10.02s1.089-.57 1.043-1.627c-.047-1.057-.653-1.356-1.034-1.363-.38-.007-.84.244-.84.244s-1.06.365-1.72.325c-.66-.04-1.357-.19-1.57-.235a21.941 21.941 0 01-.695-.178l-.164-.018-.216-.03s-.878.022-.88 1.106c-.004 1.084 1.24 1.712 1.24 1.712l-.045 2.88s.063.714-.965.735c-1.027.021-1.623-.03-2.532-1.076-.91-1.046-1.054-3.161-.999-4.257.056-1.097.486-4.63 3.266-4.835 1.233-.09 2.268.974 2.268.974s1.051.98 1.763.885c.711-.096 1.326-.344 1.364-1.222.01-.22.047-.496-.404-.886-.057-.048-.73-.896-.36-3.557.201-1.456-1.397-1.452-1.5-1.469-.103-.017-.63-.138-1.954.621-.024.013-.417.423-2.31.107-.016-.003-3.006-.143-5.233 2.563-.49.594-2.258 2.494-2.468 6.686-.126 2.506.857 4.869 2.502 6.876.402.487 2.353 3.014 6.974 2.765.018-.002-.01 1.508-.01 1.508m-25.123-3.966s-1.366.473-1.354 1.601c.012 1.128.978 1.128.978 1.128l.175-.015.276-.067.188-.04s2-.295 3.15.012l.162.03.263.053.2.053.24.043.25.025.239-.012s.74-.149.778-1.194a1.444 1.444 0 00-.815-1.398l-.001-12.367.1-.135s.613-.787 1.667-.747c1.055.04 1.72 1.506 1.744 1.602.024.095.755 1.724.753 3.707-.001 1.697-.765 4.26-.765 4.26s-.404 1.818-1.993 4.304c-.006.008-.102.19-.102.19s-.202.433-.188.772c.013.34.154.91.868.91l.212-.012.339-.041.613-.068.516-.042.69-.026h.713l.49.04.402.029.313.013.277.04.2.04.264.055.286.028.265-.003.276-.038s.792-.152.84-1.264c.05-1.11-.78-1.588-1.142-1.45-.01.004-.26-.15-1.24.528l-.126.068-.151.027h-.15l-.126-.04-.114-.108-.074-.136-.013-.11v-.149l.024-.123.051-.093.088-.123s2.674-3.408 3.036-4.398c.363-.99.94-1.561 1.066-4.017.121-2.388-1.231-4.424-1.231-4.424s-1.504-2.46-3.374-3.097C63.517.862 63.86.942 62.59.875c-.854-.047-2.436.368-3.386.922-.016.01-.126.014-.126.014l-.15-.042-.328-.216S56.795.399 55.703.507c-1.092.108-1.681.952-1.656 1.82.026.867.453 1.611 1.269 2.252.01.008.038 13.098.038 13.098" fill="#000"/><path d="M44.147 20.5l-.394-.122-.43-.093-.325-.067a7.609 7.609 0 00-.899-.125c-.511-.043-1.199-.052-1.835.104l-.272.054-.238.043-.161.031-.186.027h-.145l-.192-.02a.509.509 0 01-.143-.077c-.07-.058-.203-.206-.203-.614 0-.333.207-.657.508-.94a3.237 3.237 0 01.531-.401c.289-.177.29-.441.29-.451.02-.455.01-2.787.01-2.787l-.765-.107h-.035c-.062.001-4.109.043-4.26-4.236-.05-1.38.636-2.13 1.37-2.564a4.269 4.269 0 011.05-.433c.306-.082.525-.107.527-.107.105-.029 1.801-.701 1.801-.701s-1.697-.365-1.844-.426a2.29 2.29 0 01-.602-.367c-.422-.356-.882-1.008-.887-2.23-.005-1.153.547-1.715 1.109-2.019.291-.158.588-.245.814-.293.112-.024.204-.038.268-.046a.536.536 0 00.131-.033c.056-.002.155.014.242.016.196.003.37.015.43.029.61.138.842.172.842.172l.6.11.459.067.547.078.517.046.654.088.53.035.859.055.698.044.641.023s.936.006 2.147-.058c1.223-.064 2.731-.202 3.872-.485 1.077-.268 1.23.2 1.222.623-.011.654-.447 1.35-.849 1.49 0 0-.319.277-.323.614l-.004.429-.012 1.524-.033 4.622-.045 6.899.258.34.185.168.164.138.133.122a.648.648 0 01.129.188c.055.116.117.315.108.628-.018.698-.402.945-.521.938-.511-.032-1.46-.239-1.46-.239l-.353-.05-.366-.01h-.309l-.31.01a13.07 13.07 0 00-.67.037c-.351.03-.826.084-1.14.197a1.44 1.44 0 01-.24.05l-.206-.007-.11-.024a.913.913 0 01-.177-.147c-.11-.125-.252-.359-.255-.79-.007-.713.966-1.144 1.057-1.18l.306-.118v-2.929h-4.125v3.042l.336.105c.05.015.73.261.684.927-.063.926-.54 1.155-.579 1.163a1.06 1.06 0 01-.128.017l.002.003zM46.85 5.412a3.704 3.704 0 00-1.321.808c-.965.902-1.833 2.578-1.821 5.647 0 .008.119.491.61.496l.384.002 1.16-.001 2.154-.006-.028-7.108s-.75.027-1.138.162" fill="#FF8028"/><path d="M25.503 1.25c.592-.113 1.035-.229 1.124-.252l.838-.167.416-.057.545-.045s.311-.029.773.017a5.038 5.038 0 011.73.485c1.202.598 2.472 1.922 2.468 5.01-.004 2.76-3.809 5.54-3.886 5.597l-.13.093s-.341 1.042.484 4.185c.792 3.015 2.133 4.888 2.152 4.916l.375.522s.423-.583.497-.659c.088-.091.231-.22.434-.351.403-.26 1.058-.537 2.032-.53.671.003 3.836.765 3.636 4.474-.114 2.084-1.053 3.054-1.932 3.531a4.087 4.087 0 01-1.78.481c-.13-.007-.327.006-.586-.005a3.637 3.637 0 01-.886-.15c-.701-.209-1.663-.708-2.833-1.927-1.2-1.25-1.821-2.178-2.249-2.988-.45-.855-.705-1.604-1.143-2.454-.841-1.63-1.766-5.673-1.772-5.701l-.111-.551-.482-.142-.188.021-.167.021-1.246.497s-.031.864-.04 1.399a23.87 23.87 0 00-.003.75c.001.114.005.21.01.28.035.392.306.517.367.534.015.005.082.023.173.061.094.04.209.099.317.18.214.159.375.376.372.71-.007.802-.653.791-.693.79 0 0-.689-.013-1.456-.217-.47-.125-1.032-.154-1.455-.155a10.18 10.18 0 00-.818.031l-.054.02c-.472.164-1.087.23-1.28.248a.995.995 0 01-.376-.11c-.132-.075-.244-.187-.236-.47.02-.736 1.152-1.206 1.263-1.246l.321-.116-.01-6.462s.01-6 0-8.039l-.003-.4-.369-.085c-.93-.218-1.295-.634-1.45-.927a1.294 1.294 0 01-.15-.542.86.86 0 00-.046-.238c.01-.094.076-.185.12-.293.078-.19.209-.336.517-.323h.116c.033.01.107.03.149.05.075.032.16.073.258.118.216.1.49.223.842.343.714.243 1.73.467 3.214.483.757.009 1.617-.116 2.287-.245zm-2.05 9.418s.505.096.698.09c.159-.006.392-.03.685-.108.57-.153 1.338-.505 2.208-1.282.64-.57 1.25-1.429 1.344-3.061.101-1.736-.74-2.54-1.563-3.008-.469-.266-.98-.293-1.341-.269-.381.027-.66.117-.66.117l-.154.054-.123.033-.173.056-.186.073-.146.078-.17.083-.419.382v6.762zM17 11.849c-.039 4.223-3.334 9.718-8.553 9.65C3.22 21.433-.07 15.968.001 11.524.073 7.038 3.297 1.375 8.555 1.502c6.077.146 8.484 6.069 8.445 10.347zM5.95 8.796c.018 2.082.714 4.824 2.589 4.884 3.617.113 3.422-9.669-.028-9.695-1.928-.014-2.578 2.74-2.56 4.81m49.381 1.835l-.013-4.5-.005-1.486-.003-.418c-.002-.365-.18-.536-.182-.538-.733-.578-1.062-1.201-1.082-1.873-.017-.593.376-1.224 1.231-1.31.905-.09 2.556.947 2.606.979l.378.25.303.086s.34-.06.384-.091c.885-.517 2.364-.896 3.116-.854.313.016.526.024.7.036.15.01.266.023.397.052.297.066.666.203 1.57.512 1.681.576 3.1 2.88 3.116 2.904 0 0 .316.482.614 1.231.306.768.586 1.794.531 2.884-.06 1.184-.227 1.888-.411 2.405-.204.572-.438.961-.618 1.455-.325.891-2.911 4.217-2.95 4.267l-.111.156-.105.191-.048.253v.228l.026.243.16.294.244.232.285.093h.257l.255-.047.208-.114c.464-.323.74-.435.855-.465.028-.006.045-.011.057-.01.175.014.246-.015.256-.02.06.02.177.086.253.16.143.142.283.396.265.803-.019.412-.164.597-.267.686a.582.582 0 01-.155.098l-.268.045-.208.002-.24-.023-.24-.05-.212-.043-.309-.044-.334-.015-.388-.027-.499-.041h-.735l-.704.026-.528.043-.618.069-.327.039-.184.01c-.321-.004-.384-.19-.394-.434-.008-.19.13-.51.139-.528.018-.038.06-.12.064-.125 1.54-2.419 2-4.24 2.05-4.454.032-.105.209-.72.386-1.513.192-.86.393-1.972.395-2.881a10.22 10.22 0 00-.385-2.704c-.182-.658-.368-1.083-.38-1.13-.032-.132-.784-1.916-2.163-1.97a2.46 2.46 0 00-1.481.434 2.68 2.68 0 00-.393.32c-.1.101-.156.175-.156.175l-.203.276v12.86s.322.15.362.176c.054.034.127.087.197.161.135.142.266.362.254.716-.014.38-.145.546-.234.625a.527.527 0 01-.137.088l-.178.015-.196-.02-.204-.037-.194-.05-.278-.058-.15-.027c-.64-.168-1.472-.166-2.111-.132-.663.037-1.19.116-1.19.116l-.208.044-.248.061-.118.01c-.084-.004-.495-.053-.501-.637-.008-.704.933-1.09 1.029-1.122l.319-.111-.016-6.907zM80.45 21.396c.002-.19.004-.382.004-.525a.773.773 0 00-.506-.737c-2.214.12-3.754-.428-4.79-1.045a6.46 6.46 0 01-1.557-1.294c-.096-.11-.166-.199-.215-.257-1.58-1.938-2.493-4.177-2.376-6.518.102-2.022.575-3.474 1.072-4.485a8.29 8.29 0 01.728-1.214c.23-.317.424-.54.542-.683a6.49 6.49 0 013.205-2.145 6.169 6.169 0 011.187-.23c.144-.014.259-.019.338-.02.04 0 .064-.004.064-.003.972.162 1.595.145 1.998.067.203-.04.353-.093.464-.15.072-.037.111-.07.117-.073.628-.363 1.052-.505 1.303-.556.113-.023.198-.03.26-.028.053.001.085.009.1.012.027.004.147.007.31.032.137.021.294.06.434.125.245.117.421.291.359.74-.376 2.729.279 3.811.531 4.026.176.154.213.245.222.274a.218.218 0 01.008.06c.002.048-.002.093-.004.135-.02.468-.268.654-.95.746-.445.06-1.283-.665-1.386-.76a4.486 4.486 0 00-.748-.583c-.452-.28-1.111-.574-1.855-.519-1.608.119-2.528 1.223-3.032 2.37-.498 1.133-.624 2.365-.653 2.94-.055 1.097.068 3.415 1.119 4.628 1.028 1.188 1.773 1.26 2.872 1.237.619-.013 1.023-.245 1.243-.6a1.183 1.183 0 00.174-.652l.052-3.184-.274-.138c-.067-.034-.97-.54-.968-1.255.001-.363.132-.478.213-.53a.51.51 0 01.16-.066l.199.017.135.015c.117.032.512.138.684.175.221.047.945.202 1.628.244.4.025.883-.072 1.234-.16.367-.091.682-.201.682-.201l.033-.018c.012-.006.371-.194.618-.189.145.003.537.104.571.884.03.687-.727 1.125-.775 1.15l-.258.136-.166 10.331c-.04 1.64-.796 3.572-1.765 4.79-.908 1.14-2.617 1.864-4.906 1.782-2.255-.082-3.53-.651-3.505-3.505.026-2.875 2.46-3.92 3.355-3.913.452.003.894.128 1.233.259.323.125 1.21.65 1.21.65s.022-1.21.027-1.588M88.5 10.332c.01-1.733.019-3.468.022-4.772a289.995 289.995 0 00-.002-2.035c-.005-.31-.117-.463-.124-.471a5.345 5.345 0 00-.37-.374c-.12-.112-.245-.224-.358-.33a2.597 2.597 0 01-.24-.25.535.535 0 01.507-.573l.587-.027.9.042.792.082.998.059 2.769.05.917-.024 1.167-.06.703-.014.895-.068c.444-.047.617.103.69.195a.59.59 0 01.095.176c.011.034.036.148.036.148l.129.321.132.424.177.51.17.544.188.576.15.44.312.888.154.422.104.45a.461.461 0 01-.04.144c-.029.052-.124.203-.546.226-.385.02-.718-.158-1.02-.427a4.193 4.193 0 01-.401-.42l-.167-.198a2.439 2.439 0 00-.164-.178c-.799-.77-1.473-1.137-1.977-1.306a2.455 2.455 0 00-.61-.129 1.51 1.51 0 00-.238 0l-2.926.005.008 4.115s.925.022 1.378.031l.626.012.211.002a.614.614 0 00.473-.196c.091-.13.43-.46 1.066-.426.679.036.927.292 1.03.46a.783.783 0 01.117.36s-.021 2.621-.05 3.022c-.02.299-.41.642-1.272.654-.583.007-1.034-.649-1.055-.68l-.145-.227-2.32.023-.07 6.054s1.981.03 2.91.031c.636.002 1.27-.401 1.682-.713a7.516 7.516 0 00.712-.618c.23-.172.447-.45.61-.67.16-.217.324-.46.507-.68.357-.433.646-.612.983-.562.607.092.535.665.496.838-.132.332-1.3 3.28-1.358 3.445-.183.535-.35.729-.418.788.044.004.107.007.107.007l-.108.002-.159.021-.397.015-.564-.035-.813-.042-.732-.028-.868-.055-.884-.03-.752-.013-.656.001-1.096-.019-.549.017-.547.018-.488.019-.415.022-.36.049-.2.024-.239.04-.155.03-.213.009-.144.007-.18-.02-.127-.043c-.05-.015-.507-.188-.493-.578.029-.822 1.029-1.121 1.093-1.138l.36-.093s.028-3.83.048-7.296" fill="#FF8028"/></svg>