<svg width="100" height="60" fill="none" xmlns="http://www.w3.org/2000/svg"><path d="M1.383 56.872c3.666-7.12 7.342-14.234 11.029-21.343 5.386-10.374 8.845-17.547 8.59-17.815-.161-.169-4.655.143-9.986.693-5.331.55-10.148.91-10.703.798-.88-.178 16.88-4.484 46.241-11.212a1832.378 1832.378 0 0014.003-3.265c2.887-.692 8.401-1.972 12.252-2.843 3.85-.871 7.527-1.718 8.168-1.882.642-.164-12.486 6.893-29.172 15.681C35.118 24.472 21.18 31.982 20.83 32.372c-.348.39-1.398 4.23-2.333 8.532l-1.7 7.821L9.505 53.7a3807.825 3807.825 0 01-8.633 5.876c-1.252.843-1.219.666.511-2.704z" fill="#000"/><path d="M26.41 25.557c2.195-1.344 6.208-3.795 8.918-5.446 2.709-1.652 5.173-3.26 5.476-3.574.72-.747-.174-.732-9.11.155-7.273.72-7.405.761-7.727 2.38-.18.904-.696 2.907-1.147 4.45-.8 2.726-1.038 4.478-.612 4.478.116 0 2.007-1.1 4.202-2.443z" fill="#fff"/><path d="M63.211 57.565c-1.596-1.348-6.908-5.65-11.806-9.561L42.5 40.892l-2.778 1.602c-1.528.88-2.918 1.601-3.09 1.601-.173 0 .86-3.721 2.296-8.27l2.609-8.269 1.614 1.969c.888 1.083 4.963 6.395 9.055 11.804 4.093 5.41 8.961 11.71 10.82 14 4.538 5.599 4.566 5.934.185 2.235zm15.653-7.784c1.058-3.296 3.17-10.102 4.694-15.124l2.77-9.13-1.085-2.242-1.35-2.798c-.153-.323 1.092-.388 2.966-.154 3.173.395 3.293.352 6.618-2.372 5.53-4.53 6.803-5.489 6.475-4.875-.171.32-1.358 2.518-2.636 4.884a644.29 644.29 0 00-3.922 7.377c-.878 1.69-3.74 7.084-6.36 11.987a1519.908 1519.908 0 00-7.226 13.677c-1.355 2.62-2.555 4.764-2.666 4.764-.111 0 .664-2.697 1.722-5.994zm-57.079-7.91c5.102-11.547 5.653-12.526 7.06-12.556.712-.014 3.253-.267 5.646-.56 2.394-.295 4.413-.472 4.486-.395.074.078-1.478 1.346-3.45 2.82-3.056 2.283-3.418 2.742-2.455 3.117 4.037 1.574 4.065 1.259-.4 4.507l-4.132 3.007 2.25 2.005 2.25 2.006-2.03.343c-1.117.19-4.276.719-7.02 1.177l-4.99.833 2.785-6.303zm29.084-7.593c-2.908-4.066-5.218-7.394-5.132-7.394.085 0 2.093.698 4.463 1.553l4.308 1.553 7.24-8.16c8.787-9.906 15.905-17.602 15.508-16.768-.162.338-2.446 4.349-5.077 8.913a2625.51 2625.51 0 00-9.985 17.519c-2.86 5.07-5.39 9.436-5.62 9.7-.23.264-2.797-2.848-5.705-6.916zm14.769-2.995l4.496-9.102 5.474-.732c3.01-.403 5.569-.632 5.685-.508.116.123-1.228 1.237-2.988 2.475s-3.2 2.503-3.2 2.81c0 .308.78.741 1.734.964.954.221 1.854.608 2.001.86.147.252-1.407 1.624-3.454 3.05-2.046 1.426-3.856 2.824-4.021 3.108-.165.283.744 1.281 2.02 2.218 1.277.938 2.242 1.79 2.144 1.892-.097.104-2.647.482-5.667.841-3.02.36-6.217.782-7.105.939-1.6.284-1.575.205 2.881-8.815z" fill="#000"/></svg>