<svg width="100" height="66" fill="none" xmlns="http://www.w3.org/2000/svg"><path d="M10.033 31.053c.522.65 1.799 1.945.752 2.948-1.102 1.046-4.863 3.433-6.768 3.384-1.987.05-4.366-2.558-3.974-4.912.308-1.383 1.985-3.293 2.793-4.147.805-.919 10.136-10.607 15.79-13.975 1.529-.931 5.022-1.683 6.015-1.2 1.02.474 2.564 1.906 2.578 5.24a502.307 502.307 0 000 6.768c-.014.882.323 1.7 1.504.764.632-.495 2.11-.564 3.115-.437 1.006.146 1.61.897.752 1.528-.886.597-4.443 3.668-5.693 4.913.108 7.42-3.654 27.682-4.297 30.02-.503 2.066-1.906 3.053-3.652 3.712-1.745.568-4.767.706-4.296-1.856.469-2.489 5.034-20.705 5.585-26.092.12-.55-.283-.755-.752-.218-.47.554-2.821 2.669-4.833 2.838-2.014.242-3.47-1.227-3.76-1.638-.134-.236-.269-.782.322-1.091.618-.237 6.726-3.921 10.635-7.314.186-2.542.5-8.888.537-10.808.12-1.423-1.02-.606-1.612-.109-.617.459-8.54 7.214-10.956 10.043-.54.584-.27 1.334.215 1.64z" fill="#000"/><path d="M36.013 30.876c.449.268 1.398-.073 1.846-.657.502-.646 1.588-1.743 1.412-2.3-.094-.538-.977-1.018-2.39-.875-1.438.133-3.95.339-7.385 5.255-.979 1.925-.434 4.046.978 4.051.758-.005 1.37.885.869 1.64-.585.749-2.417 3.898-.543 6.024 1.926 2.117 5.05.475 6.408-1.642 1.357-2.126 3.325-5.752 3.91-6.679.298-.646.775-.304.651.22-.012.432.359 2.773.76 3.612.484 1.062 1.637 1.097 1.956-.11.427-1.154 2.397-6.8 3.367-7.884.284-.285.557-.183.434.219-.013.489-.183 3.124.543 4.27.699 1.248 1.75 2.308 3.259.985 1.478-1.414 1.922-2.987 2.28-3.832.15-.387.63-.482.76-.11.341 1.568 4.752 3.69 6.517-2.627.067-.593.746-.8.978-.219.175.651.787 1.407 1.846 1.314.978-.046 3.219-1.688 4.128-4.051.244-.511.856-.305 1.194 0 .34.242 1.63 1.064 2.824.547 1.25-.441 3.15-2.014 4.78-5.036 1.628-3.002 4.072-8.066 4.67-9.526.352-.936 1.031-.593.868.11-.311.941-1.737 6.448.543 8.323 2.337 1.89 6.139-1.36 7.277-2.41 1.17-1.14 7.346-6.614 8.907-8.21.814-.8.068-2.647-1.195-1.643-1.318 1.05-7.223 6.25-8.58 7.226-1.358 1.077-3.085 2.69-4.128 1.861-.726-.613-.42-2.564 0-3.613.395-1.003 1.481-3.877 1.847-4.708.449-.812-.028-2.113-.76-2.299-.76-.088-1.847.188-2.281.985-.277.4-.924.502-.87-.219.015-.784.15-2.803-.977-3.722-1.18-.997-2.748-.478-3.801 1.096-1.25 1.876-1.928 5.23.108 5.694.476.151.782.597.435 1.314-.4.72-3.355 7.086-4.67 9.087-1.262 1.968-2.348 2.789-2.933 2.3-.502-.471.143-2.933 3.367-6.132a1.053 1.053 0 00.217-1.423c-.217-.442-1.37-.544-2.172-.22-.83.428-1.27.702-1.738 1.096-.55.29-.889.29-1.086 0-.21-.327-.481-1.011 2.172-2.628.47-.297.876-.434 1.738-.328.903.03 1.175-.347 1.412-.657.237-.305.916-1.228 1.195-1.752.195-.504-.008-.982-.76-1.095-.808-.026-3.355-.026-6.52 2.518-1.587 1.221-2.571 3-2.389 3.942.09 1.042.19 2.035 2.281 2.19.692.016.66.733.326 1.095-.277.461-.99 1.11-1.412 1.97-.224.716-1.676 2.847-2.28 3.832-.692 1.194-1.914 1.4-1.847-.328.101-.874.136-2.892.109-3.723.503-1.702 4.235-17.715 4.561-20.146.286-1.332-.461-2.77-1.194-2.846-.76-.06-3.952 1.582-4.997 8.211-1.127 6.648-1.466 8.221-1.412 9.964-2.702-.17-4.806 1.61-5.756 4.489-.95 2.869-1.9 6.29-2.498 8.1-.625 1.885-1.168 2.98-1.846 2.849-.68-.143-.34-3.015-.11-4.49.312-1.4.72-3.727.978-5.145.286-1.455-.392-1.728-.977-1.643-.64.052-4.167 1.829-5.213 6.241-.178.995-1.264 1.473-1.087.22.096-1.347.163-2.236-.869-2.19-.534-.046-1.886.706-2.715 2.737-.8 1.938-2.77 5.974-4.127 8.54-1.358 2.637-2.92 4.348-3.693 3.613-.856-.633 1.113-4.055 1.738-4.927.8-.567 2.295-1.73 1.846-2.518-.365-.854-2.538-.511-3.258.11-.639.68-1.59 1.09-1.955.656-.449-.389.501-1.757 1.303-2.628.83-.908 1.577-1.868 2.826-1.315z" fill="#000"/><path d="M60.57 22.032c-1.001-.339-2.691 2.07-3.105 3.531-.463 1.481-.839 4.024.2 4.39.964.436 2.216-2.24 2.705-3.532.513-1.248 1.014-3.725.2-4.389z" fill="#fff"/><path d="M90.001 4.557C89.944 2.511 91.56 1.044 93.444 1c1.916.042 3.532 1.51 3.557 3.557-.025 1.957-1.639 3.426-3.557 3.443-1.883-.017-3.499-1.486-3.442-3.443z" fill="#000"/><path d="M93.45 7c.676-.002 1.323-.313 1.801-.864.478-.55.747-1.298.749-2.077-.03-1.74-1.132-3.012-2.55-3.059-1.389.047-2.49 1.32-2.448 3.059-.014.38.039.76.156 1.117.116.357.294.682.523.957.229.275.504.494.808.643.304.149.63.225.961.224z" fill="#fff"/><path d="M92.577 6H92V2h1.5c.93.02 1.402.368 1.385 1.143.015.724-.437 1.034-1.039 1.143L95 6h-.692l-1.039-1.714h-.692V6z" fill="#000"/><path d="M93.8 3.986c.618.044 1.151.013 1.2-.49-.049-.443-.573-.523-1.067-.489H93v.979h.8z" fill="#fff"/></svg>