<svg width="100" height="16" fill="none" xmlns="http://www.w3.org/2000/svg"><path d="M88.758 15.5c1.518-.004 3.018-.556 3.79-1.734.012.467.228 1.157.295 1.415H95c-.047-.661-.126-1.35-.13-2.016V.5h-2.256v5.66c-.671-.842-2.19-1.468-3.431-1.45-3.662-.018-5.515 2.635-5.523 5.377.008 2.618 1.635 5.41 5.098 5.413zM49.641 4.71c-.09-.007-5.728.057-6.144 5.413-.28 3.177 2.28 5.384 6.144 5.377 3.831.007 6.145-2.19 6.143-5.377.002-3.106-2.547-5.25-6.143-5.413zM56.634.5h2.647v14.681h-2.647V.5zm17.908 8.561c.058-1.471 2.342-2.554 3.465-2.547 1.72-.007 2.112 1.447 2.156 2.547v6.12h2.223V8.566a6.1 6.1 0 00-.23-1.627c-.43-1.493-2.645-2.47-3.823-2.477-1.782.007-3.028.846-3.758 1.769l-.033-.035V4.639h-2.287v10.543h2.287v-6.12zm-6.045 4.776c.004.428.053.906.13 1.344h2.19c-.041-.29-.14-.587-.164-1.096V8.53c.005-3.085-2.378-3.828-4.738-3.821-1.277-.007-2.532.152-3.497.637-.937.47-1.564 1.266-1.601 2.547H63.3c-.044-.474.79-1.472 2.484-1.486 1.256.014 2.452.587 2.45 1.274v.955c-1.41-.04-4.027.014-5.424.566-2.152.775-2.534 2.494-2.549 3.22.015 1.991 1.671 3.084 3.889 3.077 1.587.007 3.547-.481 4.347-1.663zM33.268 8.92h4.477c1.198.028 1.992 1.525 2.092 2.335.155 1.312.321 2.628.62 3.926h2.778c-.685-.799-.812-2.529-.98-3.466-.303-2.013-.068-3.106-1.863-3.467v-.035c2.1-.4 2.491-1.96 2.484-3.857C42.884 1.35 40.109.532 37.189.5h-6.6v14.682h2.679V8.92zM0 .642h24.444c2.548.124 4.381 1.673 4.543 4.705-.084 2.752-1.691 4.545-4.543 4.67H9.608v.848h19.215v1.592H8.137V8.424h16.275c1.992-.07 2.962-1.078 3.104-3.077-.2-2.15-1.328-3.021-3.104-3.113H1.47V15.11H0V.64z" fill="#FF8200"/><path d="M4.464 12.885v2.4H3V3.5h21.835v4.155H9.053c-1.89.086-3.55.946-3.58 3.403.363 2.078 1.661 2.755 3.58 2.83H29V15.5H9.02c-1.75-.075-3.721-.709-4.556-2.615z" fill="#FF8200"/><path d="M4 8.5c.907-1.595 2.752-2.156 4.578-2.228H23V5.5H4v3z" fill="#fff"/><path d="M100 2c.012-.835-.67-1.5-1.483-1.5-.853 0-1.536.665-1.517 1.5-.008.811.664 1.486 1.517 1.5.812-.024 1.495-.689 1.483-1.5z" fill="#FF8200"/><path d="M89.293 6.421c1.936.014 3.335 2.189 3.35 3.54-.015 1.364-1.276 3.396-3.186 3.403-2.277-.007-3.539-1.896-3.547-3.403.008-1.504 1.132-3.526 3.383-3.54zM49.454 13.5c-2.189.01-3.578-1.97-3.58-3.505.002-1.59 1.293-3.478 3.58-3.471v-.035.035c2.255-.007 3.546 1.882 3.547 3.47-.001 1.536-1.4 3.516-3.547 3.506zm18.688-2.96c-.067 2.031-1.388 2.756-3.35 2.756-.994 0-1.989-.143-1.938-1.497.008-1.014 1.88-1.903 5.288-1.532v.272zM33 2.813h4.532c1.615.017 2.56.834 2.562 2.076-.002 1.26-.947 1.933-2.562 1.94H33V2.814zm67-.987c.008.718-.564 1.31-1.248 1.328a1.304 1.304 0 01-1.281-1.328c-.015-.731.557-1.324 1.248-1.327a1.296 1.296 0 011.28 1.327z" fill="#fff"/><path d="M98 3.5h.154v-.857h.41c.26-.004.191.35.205.612l.026.245H99c-.076-.188-.053-.237-.077-.49-.006-.347-.014-.371-.128-.49.114-.163.16-.248.154-.49-.017-.457-.202-.518-.385-.53H98v2z" fill="#FF8200"/><path d="M98.64 1.502c.14-.017.38.054.359.528-.038.37-.206.44-.36.47H98v-.998h.64z" fill="#fff"/></svg>