<svg width="100" height="26" fill="none" xmlns="http://www.w3.org/2000/svg"><path d="M13.53 25.663c-.445-.33-.435-.416.441-3.922.492-1.972.947-4.212 1.01-4.977l.113-1.393-1.173 2.31c-2.09 4.112-3.63 6.109-5.621 7.293-1.248.741-3.56.991-5.11.551-3.158-.896-4.285-5.182-1.94-7.375 1.413-1.32 5.453-.791 5 .655-.149.476-.271.515-1.192.375-.898-.137-1.102-.08-1.629.455-.466.473-.603.852-.603 1.675 0 .896.115 1.163.725 1.683 1.25 1.067 3.17.717 4.716-.86 1.069-1.088 2.908-4.517 5.263-9.809 2.447-5.5 3.92-8.468 5.199-10.479C19.888.022 20.072-.132 20.85.066c.882.225.928 1.03.159 2.774-1.452 3.289-2.496 7.154-2.771 10.262l-.16 1.792 2.303-3.344c2.92-4.244 4.61-6.368 7.26-9.136C29.336.647 29.895.204 30.43.204c.843 0 1.095.59.604 1.414-.202.34-1.396 2.336-2.652 4.438-4.658 7.79-6.767 13.51-6.02 16.325.322 1.212.864 1.406 2.182.782 1.438-.68 2.166-1.44 3.015-3.147 1.554-3.122 4.636-5.48 7.162-5.48.663 0 1.417.15 1.676.334.403.286.535.286.921 0 .588-.436 1.64-.428 2.003.015.232.284.042.833-1.013 2.926a180.93 180.93 0 01-1.844 3.575c-.3.549-.472 1.072-.383 1.162.539.546 2.973-2.08 5.451-5.88.857-1.314.864-1.342.51-2.202-.46-1.117-.462-3.336-.002-4.238.386-.757 1.436-1.425 2.24-1.425.275 0 .81.314 1.189.698.562.57.688.9.688 1.801 0 .631-.201 1.503-.471 2.04-.62 1.232-.606 1.278.328 1.124.967-.159 1.791.347 1.791 1.1 0 .29-.748 1.488-1.669 2.673-3.116 4.012-3.62 6.024-1.255 5.022 1.54-.653 2.32-1.432 5.987-5.98 2.67-3.313 3.692-4.418 4.083-4.418.602 0 1.568.62 1.568 1.007 0 .145-.441.856-.98 1.58l-.98 1.317.313 1.093c.171.602.358 1.55.414 2.11.057.558.155 1.014.218 1.014.064 0 .726-.434 1.472-.964 1.081-.77 1.478-1.24 1.96-2.329 2.64-5.953 4.733-10.527 5.021-10.978.407-.636 1.755-.745 2.217-.18.313.383.307.399-2.205 6.396l-1.079 2.574 1.015-.603c1.114-.662 1.98-.766 2.547-.305.535.434.905 1.757.739 2.64-.15.797-1.261 3.142-2.314 4.884-.366.606-.5 1.015-.33 1.015.636 0 2.297-1.712 2.925-3.013.825-1.71 3.374-4.353 4.943-5.125 1.487-.732 3.37-.792 4.091-.13.427.392.51.403.63.082.297-.785 2.461-.658 2.461.144 0 .181-.742 1.782-1.648 3.556-.907 1.775-1.649 3.46-1.649 3.745 0 .913.646.837 1.894-.223.958-.813 1.417-1.486 2.339-3.428 2.292-4.83 5.773-9.28 8.952-11.447 1.851-1.261 3.535-1.13 3.535.275 0 .746-1.525 4.081-2.571 5.624-1.07 1.577-3.465 3.85-5.688 5.397-2.443 1.701-2.535 1.808-2.715 3.135-.174 1.293.429 2.044 1.435 1.788 1.05-.268 3.208-2.76 4.585-5.297 1.811-3.338 2.712-4.756 4.211-6.632 1.57-1.966 4.92-4.828 5.91-5.048.964-.215 1.635.04 1.794.681.166.671-.767 3.305-1.808 5.106-.98 1.694-4.22 4.99-6.634 6.75-1.895 1.38-2.295 2.086-1.956 3.454.437 1.766 2.447 1.028 4.65-1.706 1.279-1.588 1.48-1.748 1.793-1.43.509.516.245 1.23-1.151 3.105-1.322 1.776-3.124 3.143-4.466 3.388-1.478.27-3.051-.777-3.586-2.385-.043-.127-.44.116-.884.541C84.822 25.11 82.979 26 81.889 26c-.697 0-1.079-.166-1.603-.698-.379-.384-.689-.922-.689-1.194 0-.273-.057-.497-.128-.497-.07 0-.68.423-1.354.94-2.071 1.585-3.153 1.708-4.142.468l-.397-.497-.816.487c-.449.268-1.321.601-1.938.74-1.307.296-2.294-.017-3.201-1.015l-.555-.61-.936.687c-1.428 1.049-2.367 1.296-3.224.846-.886-.465-1.444-1.256-1.436-2.039.003-.332.639-1.832 1.413-3.335.774-1.502 1.407-2.819 1.407-2.926 0-.459-.674-.112-1.866.958-1.107.993-1.456 1.545-2.605 4.117-1.519 3.396-2.087 3.977-3.241 3.317-.676-.387-.836-1.252-.414-2.23.128-.297-.39-.034-1.51.763-2.821 2.01-5.093 2.174-6.653.48l-.63-.683-1.254.762c-.898.545-1.638.793-2.6.869-1.25.1-1.395.056-2.06-.62-.52-.527-.716-.95-.716-1.547 0-1.147 1.391-3.847 2.818-5.468.747-.85 1.096-1.418.933-1.52-.316-.198-.202-.33-2.452 2.835-2.481 3.491-3.908 5.024-5.357 5.757-1.472.743-2.45.78-3.144.119l-.52-.496-.957.495c-1.247.646-2.958.653-3.987.016-.425-.263-.833-.636-.906-.83-.108-.284-.325-.219-1.121.337-1.677 1.17-3.713 1.446-5.145.696-1.095-.573-1.5-3.042-1.053-6.41l.175-1.314-.737 1.313C17.245 22.716 14.806 26 14.143 26c-.087 0-.363-.152-.613-.337zm38.407-2.16c.47-.476.578-.824.575-1.852-.004-1.464-.204-2.388-.496-2.29-.415.142-2.327 2.709-2.327 3.125 0 .47 1 1.603 1.413 1.603.142 0 .518-.264.835-.586zM72.7 22.302c1.957-1.7 3.352-5.858 2.029-6.05-1.74-.25-5.03 3.54-5.094 5.87-.047 1.68 1.25 1.755 3.065.18zm-40.637.382c1.595-1.026 2.909-3.158 3.18-5.158.16-1.184-.137-1.495-1.174-1.231-2.157.55-5.394 5.5-4.395 6.722.44.537 1.202.43 2.39-.333zm54.547-8.09c1.683-1.68 4.144-5.314 3.598-5.314-.109 0-1.035.898-2.058 1.994-1.785 1.912-4.06 5.172-3.61 5.172.119 0 1.05-.833 2.07-1.851zm7.695-.417c1.16-1.083 3.494-4.897 2.996-4.897-.682 0-5.458 6.133-5.458 7.008 0 .141.496-.222 1.103-.808.451-.436.904-.87 1.359-1.303zm-50.06-1.815c.23-.664.034-1.649-.325-1.649-.3 0-.6 1.079-.468 1.687.196.905.474.892.794-.038z" fill="#000"/></svg>