<svg width="100" height="36" fill="none" xmlns="http://www.w3.org/2000/svg"><path d="M61.162.5h1.953c.283.027.567.043.851.067-.491 2.024-1.118 4.01-1.69 6.01-.69 2.326-1.377 4.65-2.102 6.965a16.932 16.932 0 012.353-.993c.91-.296 1.84-.656 2.811-.55.268-.021.514.173.6.434.303.75.085 1.564.048 2.34.761-.183 1.172-.929 1.697-1.456a5.644 5.644 0 012.927-1.404c.753-.068 1.588-.054 2.23.415.155.23.104.595-.061.814-.53.255-1.16.201-1.665.523-.181.177-.205.458-.287.69-.622 2.17-1.28 4.333-1.82 6.528-.14.424.014 1.01.474 1.117.488.02.994.07 1.474-.053.4-.352.568-.898.784-1.378.801-2.28 1.28-4.665 1.823-7.022.065-.267.112-.538.147-.81-.185-.134-.375-.283-.417-.53a2.383 2.383 0 011.876-.26c.45.169.84.47 1.22.767.285.213.381.624.31.97-.275 1.87-.932 3.648-1.262 5.504-.062.323.33.311.535.298.955-.103 1.851-.553 2.633-1.12.293-.182.396-.537.494-.855.4-1.42.711-2.863 1.069-4.294.102-.415.226-.825.397-1.213.992-.16 2.022-.186 3.011.01-.01.585-.32 1.086-.472 1.634.755-.145 1.41-.583 2.113-.88.848-.37 1.735-.806 2.68-.688.476.02.972.346 1.066.862.197.745-.178 1.45-.295 2.168.556-.035 1.142-.273 1.488-.746.318-.71.43-1.547.948-2.146.16-.205.426-.22.658-.26 1.166-.162 2.343-.195 3.518-.19 1.328-.003 2.66-.004 3.98.167.265.037.573.144.649.449.16.542.093 1.132-.059 1.669-.367 1.366-.678 2.752-1.117 4.097-.067.136-.093.364-.272.38-.95.148-1.913.148-2.871.161-.94.019-1.884-.08-2.82.037-.403.858-.705 1.776-.822 2.727-.026.353-.023.848.35 1.005.772.224 1.613.098 2.322-.282.518-.269.904-.735 1.289-1.174.64-.006 1.282-.054 1.92.014-.112.682-.399 1.317-.743 1.901-.148.225-.298.466-.524.61-.558.116-1.131.095-1.697.115-1.826.013-3.658.04-5.477-.15-.414-.026-.858-.21-1.03-.635-.217-.592-.118-1.248-.007-1.854.38-1.525 1.007-2.97 1.371-4.501.045-.191.062-.388.08-.584-.607.32-1.186.721-1.718 1.162-.39 1.06-.66 2.17-1.006 3.25-1.16 3.865-2.314 7.735-3.472 11.602-.065.19-.064.393-.058.593.185.062.378.17.577.095.258-.033.36-.307.472-.513.179-.338.308-.702.455-1.055.472-.114.978-.02 1.463-.04-.059.466-.291.877-.491 1.289a26.466 26.466 0 01-1.37 2.351c-.143.205-.279.425-.475.578-.391.188-.833.191-1.25.268h-1.735c-.601-.056-1.205-.093-1.796-.225.047-.57.218-1.117.363-1.665 1.512-5.4 3.247-10.725 4.808-16.108.132-.581.392-1.143.376-1.751-.431-.124-.867.026-1.28.153-.44.161-.887.332-1.281.599-.179.113-.235.338-.308.528-.564 1.93-.994 3.9-1.573 5.826-.103.222-.137.587-.43.613-.888.19-1.834.23-2.707-.054.092-1.173.584-2.25.88-3.374a6.834 6.834 0 01-3.434 1.076c-.33.66-.405 1.597-1.138 1.925-.856.42-1.833.36-2.754.43-1.273.112-2.547-.01-3.822-.034-.25-.013-.565-.01-.703-.274-.339-.57-.712-1.214-.593-1.915.145-1.027.464-2.015.71-3.019.193-.79.457-1.572.515-2.39-.447.465-.978.877-1.631.924-.815 2.178-1.241 4.493-2.048 6.674-1.17.169-2.375.18-3.541-.022.018-.79.257-1.545.451-2.302.399-1.552.87-3.084 1.247-4.641.127-.507.263-1.018.258-1.545-.572.044-1.11.273-1.61.555-.342.205-.703.457-.836.87-.512 1.444-.831 2.952-1.252 4.427-.229.787-.407 1.595-.734 2.347-.09.284-.41.296-.647.33-.865.099-1.75.133-2.608-.037.107-1.093.653-2.084.741-3.182-.895.358-1.777.885-2.767.84-.213.678-.411 1.414-.935 1.907-.483.447-1.159.507-1.772.543-1.108.021-2.213-.067-3.32-.073-.115.26-.218.524-.295.799-.803 2.69-1.51 5.408-2.277 8.11-.293.954-.535 1.925-.892 2.856-1.182.165-2.386.14-3.575.08.134-1.11.509-2.168.787-3.244 1.353-4.777 2.894-9.492 4.264-14.263-1.697 1.818-3.503 3.555-5.554 4.93-.547.335-1.146.744-1.81.63-.352-.075-.81-.247-.8-.703-.002-.85.327-1.649.559-2.45-.859.444-1.77.907-2.752.877-.255.808-.532 1.753-1.33 2.145-.855.38-1.815.278-2.72.25-.692 0-1.384-.06-2.075-.024-.185.167-.227.444-.319.67-1.144 3.672-2.027 7.427-3.134 11.11-.869.14-1.752.096-2.628.115-.359-.018-.732.034-1.08-.073-.019-.382.136-.745.22-1.11.953-3.353 2.046-6.658 3.07-9.986.184-.654.401-1.298.556-1.961-2.591.862-5.212 1.693-7.922 2.028-2.188.284-4.476.263-6.568-.541-1.067-.412-2.034-1.08-2.871-1.878-1.575-1.756-2.065-4.216-2.403-6.52-.104-.518-.05-1.097-.306-1.566-.456-.228-.99-.168-1.483-.184-.895.011-1.789-.035-2.684-.018v-.242c.14-.453.29-.92.609-1.273.795.01 1.59-.024 2.385-.01.504-.018 1.05.075 1.509-.205.322-.155.391-.548.524-.852.782-1.91 1.755-3.755 3.064-5.33 1.174-1.478 2.673-2.685 4.37-3.428 1.796-.797 3.782-.943 5.71-.863 3.159.29 6.155 1.722 8.664 3.713-.367.51-.854.908-1.347 1.275-.21.139-.43.3-.688.303-.175-.044-.32-.163-.474-.255-.828-.563-1.748-.954-2.587-1.497-1.973-1.212-4.408-1.752-6.64-1.086-1.249.34-2.236 1.298-3.039 2.313a14.762 14.762 0 00-2.487 4.946c-.16.413.125.939.553.964 4.911.013 9.824-.015 14.735.014-.289.52-.587 1.037-.935 1.518-4.606-.011-9.21-.001-13.817-.006-.42-.039-.706.374-.885.717-.342.902-.175 1.946.277 2.772.966 1.945 2.619 3.517 4.594 4.267 2.512.983 5.331.855 7.873.053.943-.278 1.845-.696 2.704-1.186.314-.16.284-.58.386-.878a88.83 88.83 0 011.773-5.85c.18-.444.28-.938.567-1.324.27-.148.59-.1.883-.13.826-.002 1.661-.015 2.476.15.006.588-.22 1.137-.36 1.697-.712 2.522-1.53 5.01-2.21 7.544a4.13 4.13 0 00-.142.834c.53.058 1.105.184 1.611-.057.228-.342.305-.764.441-1.15.78-2.671 1.432-5.381 2.112-8.081.126-.42-.177-.756-.469-.99.665-.413 1.476-.368 2.222-.388.325.02.703-.077.978.16.382.3.605.83.486 1.327-.31 1.951-.873 3.846-1.31 5.768a3.93 3.93 0 00-.044.468c.29.1.595.24.905.148.736-.158 1.257-.78 1.713-1.36.382-.449.418-1.077.585-1.628.356-1.305.685-2.621 1.165-3.884.1-.192.158-.502.413-.515.94-.182 1.903-.138 2.853-.097.14.043.36-.005.431.16-.06.684-.282 1.34-.459 1.999a153.766 153.766 0 00-.94 3.349c-.096.346-.15.705-.164 1.067.218-.104.425-.23.615-.383 1.071-.853 2.094-1.771 3.134-2.668.182-.164.397-.322.475-.573.284-.807.453-1.654.77-2.45.067-.158.155-.335.334-.373.55-.15 1.122-.147 1.687-.153.578.004 1.165-.025 1.732.126-.045.3-.103.597-.188.888-.7 2.481-1.521 4.923-2.258 7.392-.176.624-.393 1.241-.46 1.892.543.084 1.109.152 1.642-.032.368-.83.557-1.73.828-2.598a321.43 321.43 0 001.694-6.644c.145-.416-.182-.74-.443-.994.398-.292.895-.33 1.364-.37.511-.02 1.028-.051 1.538 0 .558.194.914.879.774 1.476-.272 1.594-.687 3.156-1.072 4.723-.118.494-.285.982-.294 1.496.367.155.782.269 1.162.08.758-.33 1.329-1.026 1.745-1.747.7-1.995 1.31-4.025 1.961-6.04C58.437 7.916 59.62 4.306 60.663.651c.137-.119.332-.107.5-.151zm32.911 13.612c-.267.99-.848 1.937-.701 3.004.038.156.072.409.272.404.498.056.998.006 1.498-.002.287-.74.473-1.517.673-2.285.09-.43.25-.849.262-1.294-.415-.193-.88-.116-1.32-.144-.247.02-.64-.034-.684.317z" fill="#010101"/></svg>